<?xml version="1.0" standalone="no"?>
<!DOCTYPE svg PUBLIC "-//W3C//DTD SVG 20010904//EN"
 "http://www.w3.org/TR/2001/REC-SVG-20010904/DTD/svg10.dtd">
<svg version="1.0" xmlns="http://www.w3.org/2000/svg"
 width="1150.000000pt" height="473.000000pt" viewBox="0 0 1150.000000 473.000000"
 preserveAspectRatio="xMidYMid meet">

<g transform="translate(0.000000,473.000000) scale(0.100000,-0.100000)"
fill="#000000" stroke="none">
<path d="M10780 4581 c-8 -5 -49 -14 -90 -20 -66 -9 -77 -8 -87 6 -17 22 -22
15 -38 -47 -8 -29 -23 -62 -34 -74 -12 -12 -28 -43 -37 -69 -9 -26 -24 -53
-33 -60 -29 -20 -55 -227 -31 -242 16 -10 12 -41 -12 -81 -17 -29 -23 -55 -23
-107 0 -37 -6 -71 -11 -75 -14 -9 -26 -63 -28 -127 0 -27 -4 -55 -8 -61 -4 -6
-5 -48 -1 -93 5 -67 9 -81 21 -76 12 4 12 2 3 -8 -31 -38 -73 -308 -57 -371 8
-32 24 -34 36 -3 8 20 9 20 8 2 0 -11 -4 -31 -8 -45 -7 -21 -8 -22 -10 -5 -4
48 -23 -35 -36 -155 -12 -111 -12 -126 2 -141 14 -16 14 -24 0 -88 -19 -83
-20 -143 -5 -186 8 -20 9 -46 4 -71 l-9 -39 -7 35 c-6 29 -7 26 -4 -15 2 -27
4 -85 4 -128 0 -44 5 -85 11 -92 6 -8 15 -41 20 -74 5 -36 17 -72 32 -91 20
-28 23 -41 21 -118 -3 -107 2 -134 24 -130 13 2 20 -11 30 -61 7 -35 17 -69
22 -75 6 -7 21 -61 36 -121 38 -164 47 -197 60 -230 23 -58 64 -250 58 -277
-4 -20 -1 -30 11 -34 9 -4 16 -18 16 -34 0 -39 9 -60 26 -60 10 0 14 13 14 40
0 43 25 94 42 84 5 -3 6 -26 2 -51 -6 -44 -6 -44 15 -31 24 15 24 16 11 90
-10 52 -8 62 20 132 16 42 30 83 30 90 0 7 8 24 19 37 10 13 27 48 37 77 11
30 34 69 52 88 18 18 42 58 54 89 11 30 27 55 35 55 14 0 58 90 73 150 41 166
65 243 91 293 23 43 29 65 24 87 -4 17 -1 40 9 57 11 23 12 37 3 70 -10 39 -9
44 14 65 31 29 53 82 44 105 -6 17 -8 16 -25 -4 -9 -12 -20 -19 -24 -16 -14
15 -4 125 20 218 27 103 41 225 25 225 -9 0 -26 -38 -37 -83 -3 -15 -11 -30
-16 -33 -16 -10 1 133 24 201 30 87 36 120 27 136 -4 8 1 45 12 84 11 41 17
82 13 99 -4 21 2 46 22 88 23 49 26 61 14 68 -8 5 -17 7 -21 4 -11 -6 -23 17
-13 25 9 6 44 77 44 88 0 4 -6 -1 -13 -11 -11 -14 -11 -2 -1 71 7 48 16 101
21 118 9 28 10 29 22 10 12 -19 12 -19 6 -1 -16 50 -25 110 -23 151 1 34 -3
49 -18 59 -14 11 -21 11 -26 3 -6 -9 -8 -9 -8 -1 0 6 7 17 14 24 11 8 12 18 5
36 -12 33 -12 54 1 34 13 -21 22 -7 15 23 -4 14 -15 27 -26 30 -15 4 -18 11
-15 29 3 13 8 61 10 108 8 133 18 199 32 211 20 16 17 39 -4 39 -25 0 -48 -28
-57 -67 -3 -18 -10 -33 -13 -32 -10 0 -72 96 -72 110 0 7 -11 22 -25 35 -26
24 -33 44 -14 44 5 0 8 4 5 9 -7 11 -62 25 -118 30 -11 0 -18 9 -18 21 0 24
-13 25 -46 4 -33 -22 -111 -8 -106 19 3 19 -31 23 -58 8z m230 -91 c12 -8 11
-10 -7 -10 -13 0 -23 5 -23 10 0 13 11 13 30 0z m-175 -22 c-17 -5 -41 -5 -55
-1 -22 6 -19 8 20 13 54 7 76 -1 35 -12z m235 7 c0 -9 -6 -12 -15 -9 -8 4 -15
10 -15 15 0 5 7 9 15 9 8 0 15 -7 15 -15z m-314 -20 c46 -12 60 -12 66 -2 4 6
8 8 8 2 0 -6 23 -9 55 -7 32 2 61 -1 69 -7 10 -9 15 -9 18 -1 7 22 61 -3 117
-53 59 -52 109 -123 96 -135 -4 -4 -12 1 -19 11 -25 41 -33 50 -45 46 -8 -3
-2 -18 18 -43 17 -21 31 -44 31 -51 0 -7 9 -24 20 -38 15 -19 20 -40 20 -89 0
-94 -16 -109 -90 -86 -8 3 -12 3 -7 1 38 -22 -63 -23 -267 -4 -70 6 -114 15
-125 25 -18 17 -90 35 -138 36 -29 0 -33 4 -39 36 -9 47 11 162 42 240 13 33
24 77 24 97 l0 37 45 0 c24 0 70 -7 101 -15z m352 -47 c7 -7 12 -15 12 -20 0
-12 -28 2 -34 18 -7 17 6 18 22 2z m-618 -330 c0 -10 -4 -18 -10 -18 -5 0 -10
15 -10 33 0 24 3 28 10 17 5 -8 10 -23 10 -32z m88 -107 c4 -11 -3 -12 -34 -7
-58 11 -68 28 -15 24 27 -2 46 -9 49 -17z m259 13 c-3 -3 -12 -4 -19 -1 -8 3
-5 6 6 6 11 1 17 -2 13 -5z m356 -26 c4 -12 5 -23 3 -25 -1 -1 -42 3 -91 10
-49 7 -84 16 -78 20 7 4 29 5 50 2 21 -3 52 -1 68 4 42 13 42 13 48 -11z
m-343 -32 c129 -7 326 -25 344 -32 9 -3 16 -15 16 -26 0 -17 -4 -19 -27 -13
-29 7 -128 19 -300 34 -55 6 -120 15 -142 21 -23 6 -46 8 -52 5 -13 -9 -159 5
-159 15 0 7 136 5 320 -4z m-83 -36 c38 -5 118 -14 178 -20 61 -6 133 -14 160
-17 45 -6 47 -7 20 -13 -31 -7 -146 2 -269 20 -39 6 -125 13 -193 17 -68 3
-126 10 -129 15 -7 11 150 10 233 -2z m-12 -41 c50 -5 131 -14 180 -20 50 -6
135 -14 190 -18 91 -5 100 -8 100 -26 0 -27 -38 -31 -129 -11 -86 18 -254 36
-341 36 -35 0 -90 7 -122 15 -31 8 -76 15 -100 15 -23 0 -45 5 -48 10 -8 13
151 13 270 -1z m-140 -40 c13 -5 -8 -8 -57 -8 -68 -1 -97 7 -83 21 7 7 116 -3
140 -13z m675 -34 c0 -14 -4 -25 -10 -25 -5 0 -10 11 -10 25 0 14 5 25 10 25
6 0 10 -11 10 -25z m-788 -13 c6 -23 68 -42 139 -43 30 -1 68 -5 84 -9 18 -5
-31 -8 -123 -9 l-154 -1 7 33 c4 17 9 35 12 40 8 14 31 7 35 -11z m473 5 c39
-3 95 -10 125 -16 30 -6 71 -12 90 -14 32 -2 35 -5 38 -36 l3 -33 -38 5 c-21
3 -78 11 -128 17 -49 6 -119 17 -155 24 -36 8 -74 13 -85 13 -42 -3 -241 15
-273 25 -18 5 -29 14 -26 20 6 9 261 6 449 -5z m-106 -73 c2 -2 -14 -4 -37 -4
-22 0 -43 4 -46 9 -6 8 73 3 83 -5z m111 -34 c19 -6 67 -10 106 -10 39 0 86
-3 103 -6 29 -6 32 -10 26 -33 -4 -14 -8 -27 -9 -28 -1 -2 -54 4 -117 12 -63
8 -193 22 -289 31 -227 20 -359 38 -340 46 23 10 481 -1 520 -12z m-425 -31
c39 -6 102 -14 140 -18 59 -7 49 -8 -65 -7 -74 1 -145 -3 -158 -7 -16 -6 -24
-4 -29 8 -6 17 11 35 32 35 6 -1 42 -5 80 -11z m524 -59 c30 -6 71 -10 92 -10
30 0 38 -4 43 -22 10 -42 7 -42 -214 -9 -36 5 -148 15 -250 21 -102 6 -201 14
-220 17 -30 5 -32 7 -15 13 26 11 494 2 564 -10z m-394 -35 c183 -10 368 -24
373 -30 14 -13 -39 -17 -112 -6 -44 6 -161 13 -259 17 -163 5 -227 13 -227 30
0 3 28 3 63 0 34 -3 107 -8 162 -11z m-176 -26 c25 -5 73 -10 106 -9 49 1 521
-25 534 -29 2 0 1 -7 -2 -15 -4 -10 5 -18 25 -25 24 -9 28 -14 19 -24 -6 -8
-8 -17 -4 -20 9 -10 -47 -8 -83 2 -18 5 -37 5 -47 -1 -13 -7 -15 -5 -11 6 7
17 45 28 71 20 17 -5 17 -5 0 6 -13 8 -31 8 -70 0 -36 -7 -68 -7 -106 0 -30 5
-77 10 -105 10 -28 0 -107 10 -176 21 -69 11 -151 23 -182 26 -46 4 -58 9 -58
23 0 22 11 32 29 25 8 -3 35 -10 60 -16z m701 -33 c0 -18 -42 -29 -52 -13 -13
21 -9 27 22 27 19 0 30 -5 30 -14z m-575 -36 l90 -19 -90 5 c-163 9 -211 17
-199 35 8 13 67 7 199 -21z m575 6 c0 -11 -19 -15 -25 -6 -3 5 1 10 9 10 9 0
16 -2 16 -4z m-377 -33 c-7 -2 -21 -2 -30 0 -10 3 -4 5 12 5 17 0 24 -2 18 -5z
m-365 -45 c-3 -25 -33 -32 -34 -8 -1 22 5 30 22 30 10 0 14 -8 12 -22z m127
11 c4 -5 -12 -9 -34 -9 -23 0 -41 -4 -41 -10 0 -5 -9 -10 -20 -10 -13 0 -20 7
-20 19 0 17 7 20 55 20 30 0 57 -5 60 -10z m108 4 c-7 -2 -19 -2 -25 0 -7 3
-2 5 12 5 14 0 19 -2 13 -5z m240 -20 c3 -5 -1 -51 -9 -103 -7 -52 -13 -147
-14 -211 0 -81 -5 -128 -15 -153 -11 -27 -13 -42 -5 -56 7 -14 7 -54 0 -132
-12 -120 -26 -166 -18 -58 3 36 1 76 -3 90 -4 16 -7 -8 -8 -63 -1 -49 -8 -146
-17 -215 -8 -70 -12 -128 -7 -129 25 -9 29 -23 25 -95 -3 -56 -8 -78 -17 -78
-7 0 -15 5 -17 11 -2 7 -32 12 -68 14 l-65 2 -3 57 c-2 39 0 56 8 51 5 -3 13
1 16 10 4 9 15 15 27 13 11 -2 22 3 25 11 5 14 -22 13 -62 -4 -17 -7 -18 -5
-12 21 5 16 9 63 11 104 2 41 8 95 13 120 14 60 24 228 11 183 -5 -18 -12 -33
-15 -33 -7 0 5 277 17 385 6 50 17 103 25 119 8 16 14 48 14 72 0 47 22 64 59
45 25 -14 69 -15 56 -2 -6 5 -26 14 -45 19 -33 10 -31 10 27 11 34 1 64 -2 66
-6z m106 -12 c14 -9 22 -58 13 -76 -3 -5 -5 -30 -3 -55 4 -64 -16 -39 -23 28
-5 53 -11 70 -21 60 -3 -3 -1 -27 6 -53 8 -31 10 -83 6 -151 -5 -68 -3 -104 3
-104 6 0 13 14 17 32 5 27 7 29 14 13 5 -14 8 -7 9 25 1 25 3 54 4 65 1 11 3
64 4 118 l2 98 35 -3 c46 -3 59 -19 51 -60 -4 -18 -11 -89 -15 -158 -5 -69
-17 -183 -27 -255 -10 -71 -18 -148 -17 -170 1 -67 -17 -509 -21 -530 -3 -11
-5 -33 -5 -48 -1 -36 -30 -48 -49 -19 -24 37 -52 65 -52 54 0 -7 -13 -12 -30
-12 -28 0 -30 2 -30 39 0 22 6 82 14 133 38 249 47 395 50 876 l1 162 25 0
c14 0 31 -4 39 -9z m-319 -37 c0 -27 -5 -37 -19 -41 -16 -4 -20 -21 -30 -131
-6 -70 -10 -152 -9 -182 4 -151 -5 -318 -23 -438 -10 -73 -19 -136 -19 -139 0
-3 -7 0 -15 7 -8 7 -15 8 -15 3 0 -5 9 -16 20 -26 21 -18 26 -43 10 -49 -13
-4 4 -108 20 -118 16 -10 9 -50 -11 -63 -12 -8 -25 -4 -50 16 -37 28 -122 58
-154 54 -18 -2 -20 3 -17 41 1 24 -4 62 -12 85 -11 32 -12 55 -6 88 5 24 14
107 20 184 12 178 12 179 3 182 -20 7 11 402 36 448 9 17 18 44 21 60 5 30 5
30 75 32 39 0 88 5 110 11 64 15 65 15 65 -24z m-270 -22 c0 -9 -5 -24 -10
-32 -7 -11 -10 -5 -10 23 0 23 4 36 10 32 6 -3 10 -14 10 -23z m257 -694 c-3
-8 -6 -5 -6 6 -1 11 2 17 5 13 3 -3 4 -12 1 -19z m-407 -35 c-11 -17 -11 -17
-6 0 3 10 6 24 7 30 0 9 2 9 5 0 3 -7 0 -20 -6 -30z m567 -200 c-3 -10 -5 -4
-5 12 0 17 2 24 5 18 2 -7 2 -21 0 -30z m-187 -213 c0 -5 -5 -10 -11 -10 -5 0
-7 5 -4 10 3 6 8 10 11 10 2 0 4 -4 4 -10z m29 -56 c23 -38 44 -41 49 -5 l3
22 18 -23 c10 -13 23 -39 30 -58 8 -19 24 -57 36 -85 12 -27 27 -61 33 -75 10
-24 11 -24 12 10 0 19 5 55 12 80 6 25 11 70 12 100 1 70 19 75 85 23 47 -36
49 -40 47 -85 -1 -37 -5 -48 -17 -48 -17 0 -29 -38 -29 -93 0 -29 -19 -97 -30
-107 -3 -3 -16 -21 -28 -40 -12 -19 -22 -30 -22 -25 0 16 -20 -18 -20 -35 1
-10 9 -6 25 13 13 15 26 27 29 27 11 0 -16 -56 -39 -80 -13 -14 -36 -54 -51
-89 l-28 -63 -35 6 c-20 4 -80 11 -135 16 -54 5 -106 12 -116 15 -22 7 -53
115 -69 239 -10 77 -41 188 -83 293 -27 70 38 113 100 67 18 -14 30 -30 27
-35 -4 -5 0 -9 8 -9 7 0 24 -12 38 -27 28 -31 63 -103 51 -103 -12 0 -57 51
-76 85 -15 26 -16 27 -10 5 14 -55 83 -136 108 -127 14 6 15 84 0 168 -6 40 8
79 30 79 8 0 24 -16 35 -36z m30 14 c5 -13 7 -25 5 -27 -7 -7 -34 21 -34 35 0
22 20 16 29 -8z m161 -103 c0 -8 -4 -15 -10 -15 -5 0 -10 7 -10 15 0 8 5 15
10 15 6 0 10 -7 10 -15z"/>
<path d="M10885 4360 c10 -12 38 -29 62 -40 57 -25 89 -51 126 -100 19 -26 27
-48 24 -61 -3 -11 0 -33 7 -50 9 -22 15 -26 24 -17 14 14 16 32 3 24 -5 -3
-11 17 -15 44 -4 28 -11 50 -16 50 -6 0 -10 6 -10 13 -1 25 -72 88 -140 122
-80 40 -90 43 -65 15z"/>
<path d="M10848 3473 c6 -2 18 -2 25 0 6 3 1 5 -13 5 -14 0 -19 -2 -12 -5z"/>
<path d="M10748 3463 c7 -3 16 -2 19 1 4 3 -2 6 -13 5 -11 0 -14 -3 -6 -6z"/>
<path d="M10898 3463 c6 -2 18 -2 25 0 6 3 1 5 -13 5 -14 0 -19 -2 -12 -5z"/>
<path d="M11148 3403 c7 -3 16 -2 19 1 4 3 -2 6 -13 5 -11 0 -14 -3 -6 -6z"/>
<path d="M10783 3135 c0 -27 2 -38 4 -22 2 15 2 37 0 50 -2 12 -4 0 -4 -28z"/>
<path d="M10767 3028 c-4 -29 -6 -87 -5 -128 1 -63 2 -55 9 49 9 129 7 170 -4
79z"/>
<path d="M10751 2804 c0 -11 3 -14 6 -6 3 7 2 16 -1 19 -3 4 -6 -2 -5 -13z"/>
<path d="M11107 3289 c-17 -40 -16 -63 2 -43 8 9 25 84 19 84 -2 0 -11 -19
-21 -41z"/>
<path d="M11036 2694 c-4 -9 -9 -51 -12 -93 -2 -42 -7 -96 -9 -121 -3 -38 -2
-41 7 -20 8 21 28 239 22 248 -1 2 -4 -5 -8 -14z"/>
<path d="M11062 2515 c0 -16 2 -22 5 -12 2 9 2 23 0 30 -3 6 -5 -1 -5 -18z"/>
<path d="M10997 2403 c-7 -37 4 -156 14 -146 4 4 9 22 11 38 2 19 9 30 18 30
8 0 18 7 22 15 10 23 9 62 -2 55 -5 -3 -10 -15 -10 -25 0 -25 -17 -35 -35 -20
-9 7 -12 23 -8 46 7 40 -2 46 -10 7z"/>
<path d="M10991 2224 c0 -11 3 -14 6 -6 3 7 2 16 -1 19 -3 4 -6 -2 -5 -13z"/>
<path d="M10451 3014 c0 -11 3 -14 6 -6 3 7 2 16 -1 19 -3 4 -6 -2 -5 -13z"/>
<path d="M10451 2944 c0 -11 3 -14 6 -6 3 7 2 16 -1 19 -3 4 -6 -2 -5 -13z"/>
<path d="M11331 3604 c0 -11 3 -14 6 -6 3 7 2 16 -1 19 -3 4 -6 -2 -5 -13z"/>
<path d="M11312 3520 c0 -14 2 -19 5 -12 2 6 2 18 0 25 -3 6 -5 1 -5 -13z"/>
<path d="M8748 2992 c-14 -2 -32 -10 -39 -19 -19 -21 -39 -83 -39 -116 0 -39
-20 -116 -33 -124 -6 -4 -7 31 -3 103 5 80 4 104 -4 92 -6 -10 -17 -18 -24
-18 -23 0 -37 -376 -35 -975 1 -308 -2 -618 -6 -689 -7 -121 -7 -128 11 -124
10 2 21 13 24 26 10 43 25 28 33 -33 5 -33 13 -65 19 -72 5 -7 7 -31 3 -57 -5
-30 -4 -46 3 -46 19 0 42 -31 42 -56 0 -13 6 -24 13 -24 17 0 34 131 47 360
19 323 37 481 57 496 28 21 38 11 38 -39 0 -61 19 -61 25 0 4 41 8 48 29 51
29 4 36 10 113 89 43 45 74 67 108 78 27 9 54 23 60 31 15 17 49 18 72 0 19
-14 44 -180 33 -216 -11 -35 -25 -11 -26 43 l-1 52 -10 -43 c-7 -31 -5 -65 6
-125 19 -100 20 -117 4 -154 -6 -15 -12 -66 -14 -113 -3 -66 -8 -90 -24 -112
l-21 -28 21 0 c19 0 20 -4 14 -78 -4 -53 -3 -86 5 -100 11 -21 14 -21 40 -7
28 14 29 13 24 -6 -6 -21 -36 -42 -47 -32 -3 3 -6 -4 -6 -16 0 -15 5 -21 17
-19 12 2 21 -7 28 -27 17 -50 45 -70 119 -83 65 -12 70 -12 91 8 18 17 30 20
58 15 23 -5 45 -2 66 10 17 8 36 13 41 10 5 -3 12 1 17 8 4 7 30 25 56 41 107
62 150 119 122 162 -11 17 -13 30 -6 42 15 27 53 59 85 69 39 12 46 33 12 33
-19 0 -26 5 -26 20 0 26 -34 26 -67 0 -26 -20 -53 -26 -53 -12 0 5 20 23 45
42 78 58 48 72 -31 15 -27 -19 -59 -39 -72 -45 -12 -5 -25 -17 -28 -25 -4 -8
-13 -15 -22 -15 -8 0 -29 -16 -46 -35 -38 -43 -190 -127 -204 -113 -6 6 -6 23
0 45 11 41 -6 122 -29 136 -21 13 -17 193 8 322 17 87 20 138 17 240 -5 182
-18 206 -164 315 -25 19 -66 52 -91 73 -48 40 -69 45 -111 23 -34 -17 -203
-193 -218 -227 -6 -13 -19 -40 -28 -59 l-16 -35 5 80 c14 211 17 695 6 775
-13 86 -46 207 -59 212 -4 2 -19 2 -34 0z m8 -90 c-12 -11 -16 6 -9 39 l8 34
3 -33 c2 -19 1 -36 -2 -40z m64 -99 c10 -72 11 -170 6 -378 -10 -407 -23 -421
-23 -25 0 229 -4 351 -12 385 -12 49 -6 129 9 120 4 -2 13 -48 20 -102z m-120
-350 c0 -30 -28 -195 -34 -201 -8 -7 -7 81 0 157 5 41 11 61 20 61 8 0 14 -8
14 -17z m516 -418 c19 -15 18 -16 -9 -40 -15 -14 -38 -25 -49 -25 -26 0 -81
-17 -125 -39 -40 -19 -48 -12 -33 33 15 47 27 55 107 71 89 17 86 17 109 0z
m169 -5 c3 -5 1 -10 -4 -10 -6 0 -11 5 -11 10 0 6 2 10 4 10 3 0 8 -4 11 -10z
m55 -259 c0 -33 -4 -62 -9 -65 -12 -8 -24 59 -16 95 11 49 25 32 25 -30z m-40
-270 c0 -17 -4 -33 -10 -36 -6 -4 -10 8 -10 29 0 20 5 36 10 36 6 0 10 -13 10
-29z m504 -256 c-20 -15 -54 -20 -54 -7 0 4 12 14 28 23 33 19 55 6 26 -16z
m-94 -2 c0 -12 -33 -43 -47 -43 -17 0 -17 10 4 32 16 18 43 25 43 11z m-525
-91 c0 -24 -5 -44 -12 -46 -18 -7 -21 3 -15 52 5 55 26 50 27 -6z m582 -58 c9
-28 -114 -134 -156 -134 -11 0 -24 -6 -28 -12 -11 -17 -83 -50 -83 -38 0 10
51 60 62 60 4 0 29 20 55 44 26 24 62 55 78 70 30 26 65 31 72 10z m-104 -16
c-13 -12 -26 -18 -30 -14 -4 4 1 14 11 22 31 22 43 17 19 -8z m-193 -17 c-13
-26 -23 -31 -39 -22 -10 6 -7 12 10 25 31 21 42 20 29 -3z m100 -36 c-16 -31
-60 -62 -60 -43 0 16 60 81 68 74 3 -4 -1 -17 -8 -31z m-161 -4 c13 -8 13 -12
1 -26 -13 -16 -15 -16 -27 1 -20 27 -3 43 26 25z m-133 -54 c14 5 25 -22 18
-41 -3 -8 -14 -16 -25 -19 -21 -6 -39 18 -39 53 0 16 4 19 18 12 9 -5 22 -7
28 -5z"/>
<path d="M4585 2891 c-46 -9 -46 -45 -1 -72 41 -24 40 -23 25 -52 -12 -22 -12
-22 9 -3 16 14 31 17 59 13 21 -3 62 -9 91 -13 28 -3 52 -10 52 -14 0 -25
-186 -40 -209 -17 -10 10 -11 9 -6 -5 8 -20 34 -30 73 -28 45 3 50 1 45 -20
-12 -46 75 -90 144 -73 22 5 88 6 158 1 66 -4 197 -5 291 -2 126 5 178 3 194
-6 13 -7 49 -12 81 -11 32 0 60 -2 62 -6 7 -11 -32 -344 -43 -368 -6 -14 -9
18 -11 100 -2 114 -2 117 -9 50 -4 -39 -13 -190 -20 -335 -16 -348 -23 -380
-38 -170 -16 227 -17 277 -5 292 12 16 33 163 33 236 0 97 -61 74 -73 -28 -12
-91 -20 -637 -12 -761 6 -111 8 -116 27 -111 19 5 20 10 15 73 -5 62 -4 70 15
80 19 10 20 9 15 -38 -3 -26 -13 -122 -22 -213 -11 -106 -22 -169 -30 -176 -9
-7 -10 -15 -4 -25 5 -8 9 -49 9 -91 0 -62 3 -78 15 -78 15 0 13 -31 -7 -98 -5
-18 -8 -36 -5 -39 9 -9 27 7 27 25 0 21 39 191 50 217 5 12 9 -27 9 -102 1
-71 5 -124 11 -128 6 -4 17 -22 25 -41 8 -19 18 -34 23 -34 4 0 21 13 36 29
32 33 41 77 57 281 22 271 45 766 37 788 -4 13 -3 119 3 235 6 117 9 264 7
327 -3 110 -2 115 17 113 11 -1 81 -5 155 -9 130 -6 138 -8 225 -47 61 -28
108 -42 148 -45 65 -5 75 8 26 34 -29 14 -30 17 -16 32 9 9 44 19 78 23 70 8
135 34 144 57 5 13 2 13 -14 -2 -56 -50 -222 -62 -309 -21 -55 26 -61 45 -14
45 53 0 318 50 374 71 67 25 78 48 42 84 -14 14 -31 25 -38 25 -8 0 -16 9 -19
20 -5 19 -11 20 -69 15 -338 -29 -730 -45 -1178 -48 -272 -1 -504 -7 -514 -11
-18 -9 -18 -10 0 -23 16 -12 15 -13 -12 -13 -47 1 -214 46 -231 63 -21 20 -8
41 17 27 28 -15 80 -13 80 4 0 7 -10 16 -22 20 -26 6 -31 6 -73 -3z m2002 -57
c13 -4 20 -11 16 -20 -4 -12 -24 -13 -102 -8 -53 3 -103 8 -111 12 -31 12 153
28 197 16z m-127 -54 c0 -5 -20 -10 -45 -10 -25 0 -45 5 -45 10 0 6 20 10 45
10 25 0 45 -4 45 -10z m180 6 c0 -11 -19 -15 -25 -6 -3 5 1 10 9 10 9 0 16 -2
16 -4z m-515 -15 c23 -5 11 -9 -51 -14 -44 -3 -91 -3 -105 0 l-24 7 25 7 c31
9 116 9 155 0z m-312 -8 c-7 -2 -19 -2 -25 0 -7 3 -2 5 12 5 14 0 19 -2 13 -5z
m-448 -13 c30 -7 30 -7 5 -13 -55 -13 -126 -17 -206 -10 -47 3 -83 8 -81 10
19 18 221 28 282 13z m-360 -50 c-3 -5 -28 -10 -56 -10 -35 0 -49 -4 -49 -14
0 -17 -24 -28 -45 -20 -22 9 -18 33 8 44 31 12 150 13 142 0z m670 -30 c7 -12
-64 -12 -110 0 -23 6 -15 8 37 9 37 0 70 -3 73 -9z m-260 -11 c28 -1 20 -4
-30 -10 -82 -9 -177 -1 -135 12 14 5 48 6 75 4 28 -3 68 -6 90 -6z m588 -36
c-7 -2 -19 -2 -25 0 -7 3 -2 5 12 5 14 0 19 -2 13 -5z m247 -68 c17 -20 -9
-21 -36 0 -19 14 -19 14 2 15 12 0 27 -7 34 -15z m-710 -256 c-6 -46 -10 -90
-10 -96 0 -7 -3 -13 -7 -13 -9 0 -6 186 3 210 5 13 7 13 14 -1 6 -10 6 -50 0
-100z m107 -231 c-3 -8 -6 -5 -6 6 -1 11 2 17 5 13 3 -3 4 -12 1 -19z m49
-835 c-11 -170 -30 -240 -27 -98 1 59 22 215 29 215 2 0 1 -53 -2 -117z m-160
-10 c-10 -10 -19 5 -10 18 6 11 8 11 12 0 2 -7 1 -15 -2 -18z m0 -99 c-4 -13
-11 -24 -16 -24 -14 0 -13 33 2 67 11 28 12 28 16 4 2 -12 1 -34 -2 -47z m134
-245 c-8 -14 -15 -18 -22 -11 -6 6 -4 21 8 43 17 31 19 32 22 12 2 -12 -2 -32
-8 -44z"/>
<path d="M1895 2750 c3 -41 10 -102 15 -135 10 -64 25 -351 25 -475 0 -41 -3
-139 -7 -218 -5 -93 -4 -141 2 -137 6 3 10 2 10 -4 0 -5 -5 -11 -11 -13 -7 -2
-6 -18 5 -47 15 -44 12 -86 -5 -60 -14 23 -19 3 -8 -30 6 -17 8 -39 4 -49 -3
-9 -8 -80 -11 -157 -5 -189 -23 -353 -40 -370 -15 -15 -19 -75 -5 -75 5 0 12
17 16 37 7 35 8 36 15 13 4 -14 12 -24 18 -22 14 2 15 -2 12 -93 -1 -38 -6
-75 -10 -80 -5 -6 4 -22 21 -39 16 -16 31 -37 34 -47 5 -16 17 -19 64 -19 39
0 63 -5 71 -14 23 -28 103 -42 260 -44 85 -2 163 -5 173 -8 10 -3 79 2 154 11
110 14 149 15 202 6 103 -17 341 -25 374 -12 27 10 27 12 12 35 -13 20 -14 29
-4 47 10 20 9 25 -11 41 -12 10 -28 18 -36 18 -8 0 -14 5 -14 10 0 6 16 10 36
10 51 0 39 24 -14 28 -23 2 -42 7 -42 13 0 5 -10 9 -23 9 -13 0 -28 5 -33 10
-6 6 -62 15 -125 21 -221 21 -827 113 -842 129 -5 4 -4 44 1 89 7 54 7 161 0
312 -5 127 -7 234 -3 237 3 4 10 0 15 -8 14 -23 18 2 23 143 4 115 -2 160 -16
125 -3 -7 -6 10 -6 39 -1 28 3 53 8 55 5 2 12 93 16 203 5 152 3 226 -9 309
-14 105 -16 110 -48 135 -18 14 -48 40 -65 59 l-33 33 0 -37 c0 -36 -1 -37
-19 -20 -10 10 -21 14 -23 9 -3 -4 -6 -44 -7 -88 -1 -44 -4 -81 -7 -84 -12
-12 -19 17 -20 88 -2 87 -7 101 -58 151 l-37 34 6 -74z m54 -323 c0 -38 -3
-47 -9 -32 -12 29 -12 98 0 90 6 -3 10 -30 9 -58z m259 -55 c-5 -27 -28 -26
-28 2 0 19 4 24 15 19 9 -3 15 -12 13 -21z m-168 -74 c0 -36 -4 -35 -14 5 -4
16 -2 27 4 27 5 0 10 -14 10 -32z m-83 -180 c-3 -7 -5 -2 -5 12 0 14 2 19 5
13 2 -7 2 -19 0 -25z m10 -140 c-3 -7 -5 -2 -5 12 0 14 2 19 5 13 2 -7 2 -19
0 -25z m167 -376 c-4 -17 -10 -29 -15 -26 -11 6 -12 58 -2 68 13 13 23 -11 17
-42z m-160 -53 c3 -59 -1 -79 -15 -79 -5 0 -9 35 -9 77 0 90 20 91 24 2z m76
-464 c0 -13 -4 -27 -10 -30 -6 -4 -10 8 -10 30 0 22 4 34 10 30 6 -3 10 -17
10 -30z m305 -96 c44 -5 116 -16 160 -24 44 -8 91 -17 105 -19 14 -2 -15 -2
-65 1 -96 6 -353 47 -364 59 -3 4 14 4 39 0 25 -4 81 -11 125 -17z m-55 -29
c102 -17 113 -24 50 -31 l-55 -6 57 -1 c31 -1 59 -6 62 -11 9 -14 -80 -23
-159 -16 l-73 7 -4 34 c-5 42 -1 46 32 40 14 -3 54 -10 90 -16z m245 -40 c8
-12 -61 -12 -90 0 -15 6 -6 9 32 9 28 1 55 -3 58 -9z m-581 -42 c4 -24 3 -38
-4 -38 -5 0 -10 19 -10 42 0 49 5 47 14 -4z m663 -4 c100 -12 41 -24 -120 -24
-192 0 -260 12 -117 21 156 9 183 9 237 3z m478 -74 c-8 -13 -35 -13 -55 0
-11 7 -5 10 23 10 23 0 36 -4 32 -10z m155 -15 c15 -14 17 -21 9 -32 -15 -18
-69 -17 -69 1 0 16 -21 26 -56 26 -24 0 -31 10 -16 24 13 14 111 0 132 -19z
m-722 -2 c-10 -2 -28 -2 -40 0 -13 2 -5 4 17 4 22 1 32 -1 23 -4z m367 -2 l40
-9 -50 0 c-27 0 -70 3 -95 7 l-45 8 55 1 c30 1 73 -3 95 -7z m-176 -37 c2 -2
-28 -4 -68 -4 -45 0 -70 4 -66 10 5 9 123 3 134 -6z m68 -31 c-2 -2 -48 -10
-103 -18 -118 -18 -460 -11 -432 9 10 7 103 11 276 12 144 0 260 -1 259 -3z"/>
<path d="M1058 2798 c-2 -6 -41 -12 -95 -13 -76 -2 -109 -9 -199 -40 -60 -21
-119 -45 -131 -53 -12 -7 -31 -11 -41 -8 -13 4 -22 1 -26 -9 -10 -26 -24 -16
-31 22 -10 54 -25 80 -36 62 -12 -19 -11 -72 1 -64 6 3 10 3 10 -2 1 -4 5 -28
10 -53 20 -95 39 -302 46 -480 4 -102 4 -183 1 -180 -3 3 -12 86 -21 185 -9
99 -23 232 -31 295 -8 63 -16 139 -17 170 l-1 55 -7 -45 c-5 -35 -8 -41 -14
-25 -4 11 -12 29 -17 40 -8 18 -9 18 -3 -2 3 -12 -2 -38 -11 -56 -14 -30 -15
-52 -6 -178 6 -79 11 -176 11 -216 0 -39 5 -75 10 -78 13 -8 14 -305 1 -305
-5 0 -11 10 -14 23 -2 12 -1 -57 1 -153 3 -96 9 -176 13 -178 11 -5 11 -53 0
-71 -6 -9 -10 -5 -14 15 -3 16 -12 54 -20 84 -23 85 -20 24 5 -92 19 -92 21
-129 19 -340 -2 -158 1 -244 9 -257 8 -15 21 -21 45 -21 30 0 35 4 41 28 13
61 23 68 23 16 1 -27 6 -55 12 -61 15 -15 39 -5 39 16 0 43 30 43 180 1 82
-23 139 -33 122 -21 -19 12 33 21 117 21 73 0 119 -9 102 -19 -17 -11 224 -12
250 -2 17 7 4 8 -43 4 -44 -4 -68 -2 -68 4 0 14 34 23 90 23 25 1 63 5 85 9
22 5 64 14 94 20 66 13 95 35 81 62 -6 10 -10 19 -10 22 0 2 29 24 65 48 35
24 65 49 65 55 0 6 13 27 30 45 33 38 62 112 53 135 -3 8 -13 19 -22 23 -14 8
-17 28 -19 117 -2 79 -6 112 -17 124 -8 9 -15 21 -15 27 0 23 -128 141 -181
166 -31 15 -59 27 -63 27 -4 0 -32 12 -62 26 -60 28 -63 49 -5 39 34 -6 39 -3
70 36 31 38 34 48 37 120 3 85 10 119 24 119 5 0 12 -16 16 -35 3 -19 9 -35
13 -35 10 0 1 303 -10 315 -4 6 -15 68 -24 138 -17 132 -32 203 -34 160 -1
-28 -15 -30 -33 -4 -7 10 -27 25 -45 35 -18 9 -36 22 -40 29 -8 13 -147 70
-253 103 -30 9 -59 20 -65 24 -21 15 -44 18 -47 8z m-343 -108 c-3 -5 -10 -10
-16 -10 -5 0 -9 5 -9 10 0 6 7 10 16 10 8 0 12 -4 9 -10z m355 -1 c28 0 31 -2
15 -8 -19 -8 -19 -9 5 -15 14 -3 53 -10 88 -15 38 -6 83 -22 115 -41 76 -44
87 -54 87 -83 0 -14 13 -61 29 -104 26 -71 28 -84 20 -142 -14 -101 -38 -181
-76 -253 -19 -37 -36 -81 -37 -97 -1 -17 -11 -41 -23 -53 -11 -13 -22 -29 -25
-37 -5 -19 -20 -20 -221 -23 -111 -2 -170 -7 -175 -14 -4 -6 -27 -15 -52 -19
-44 -7 -64 -21 -86 -60 -17 -31 -35 -30 -34 2 0 15 -4 55 -10 88 -10 57 -24
308 -37 638 -4 129 -3 147 10 147 9 0 20 7 25 16 5 9 54 32 108 50 86 29 108
33 169 28 39 -2 86 -5 105 -5z m-430 -84 c0 -8 -7 -15 -15 -15 -8 0 -15 7 -15
15 0 8 7 15 15 15 8 0 15 -7 15 -15z m805 -195 c3 -5 1 -10 -4 -10 -6 0 -11 5
-11 10 0 6 2 10 4 10 3 0 8 -4 11 -10z m135 -192 c0 -36 -4 -35 -14 5 -4 16
-2 27 4 27 5 0 10 -14 10 -32z m-148 -130 c-8 -8 -9 -4 -5 13 4 13 8 18 11 10
2 -7 -1 -18 -6 -23z m87 -174 c-12 -13 -26 -24 -31 -24 -14 0 -9 19 12 40 29
29 47 14 19 -16z m1 -40 c0 -16 -23 -44 -35 -44 -20 0 -19 20 3 36 18 14 32
18 32 8z m-122 -20 c-4 -20 -34 -41 -44 -31 -8 8 24 47 38 47 5 0 8 -7 6 -16z
m34 -36 c-7 -7 -12 -8 -12 -2 0 6 3 14 7 17 3 4 9 5 12 2 2 -3 -1 -11 -7 -17z
m-87 -28 c3 -5 -1 -10 -9 -10 -9 0 -16 5 -16 10 0 6 4 10 9 10 6 0 13 -4 16
-10z m-62 -102 c51 -21 67 -32 162 -112 41 -35 49 -38 67 -27 16 10 25 9 51
-7 38 -22 77 -76 77 -108 0 -13 8 -31 19 -41 27 -27 37 -63 16 -63 -15 0 -16
-8 -10 -60 7 -60 -8 -135 -25 -125 -14 9 -58 -16 -63 -36 -3 -11 -14 -19 -26
-19 -11 0 -37 -9 -58 -19 -21 -11 -58 -20 -83 -21 -64 -3 -69 0 -35 15 45 21
6 18 -65 -5 -34 -11 -74 -20 -89 -20 -14 0 -48 -7 -76 -15 l-50 -15 60 5 c33
2 114 7 180 11 l120 6 -30 -25 c-38 -33 -108 -42 -229 -32 -50 4 -174 8 -276
10 -106 1 -197 7 -212 13 -15 6 -30 7 -33 2 -3 -4 1 -10 7 -13 7 -2 10 -8 5
-12 -4 -5 -13 -3 -20 4 -12 12 -20 429 -9 501 l6 35 11 -45 c19 -76 30 -46 30
83 0 135 1 137 68 119 26 -7 71 -3 188 19 174 32 241 31 322 -3z m160 5 c-7
-2 -19 -2 -25 0 -7 3 -2 5 12 5 14 0 19 -2 13 -5z m82 -93 c24 -27 1 -27 -40
0 l-30 20 26 0 c14 0 34 -9 44 -20z m142 -116 c-9 -10 -38 16 -31 28 4 6 13 4
22 -6 9 -8 13 -19 9 -22z m77 -216 c-6 -21 -24 -24 -24 -4 0 7 3 29 7 47 l7
34 8 -30 c4 -16 5 -38 2 -47z m47 -80 c-4 -12 -14 -24 -21 -26 -9 -3 -11 1 -7
12 4 10 7 22 7 27 0 5 7 9 15 9 11 0 12 -6 6 -22z m-153 -110 c-6 -18 -28 -21
-28 -4 0 9 7 16 16 16 9 0 14 -5 12 -12z m-958 -158 c0 -6 -11 -10 -25 -10
-23 0 -34 18 -19 33 9 8 44 -11 44 -23z m183 23 c53 -3 97 -10 97 -15 0 -6
-47 -8 -122 -5 -140 6 -128 5 -128 15 0 10 39 11 153 5z"/>
<path d="M1068 1003 c7 -3 16 -2 19 1 4 3 -2 6 -13 5 -11 0 -14 -3 -6 -6z"/>
<path d="M3040 2411 c-14 -5 -47 -19 -75 -33 -27 -14 -77 -33 -110 -43 -33 -9
-69 -28 -82 -41 -12 -13 -28 -24 -36 -24 -8 0 -34 -25 -57 -55 -24 -31 -58
-72 -77 -92 -18 -21 -42 -62 -53 -92 -63 -166 -62 -534 0 -651 58 -109 235
-276 347 -326 32 -14 85 -28 120 -31 77 -7 122 13 219 97 38 33 96 74 129 91
73 39 173 133 208 197 38 71 49 149 45 319 l-3 151 -62 123 c-34 68 -76 140
-93 159 -98 110 -220 226 -255 241 -41 19 -120 23 -165 10z m128 -97 c51 -21
33 -27 -37 -13 -58 11 -146 8 -201 -7 -39 -11 -10 15 36 32 46 17 148 11 202
-12z m-64 -30 c9 -3 16 -10 16 -16 0 -11 -110 0 -124 13 -11 10 83 13 108 3z
m-320 -50 c-16 -20 -39 -50 -51 -67 -25 -35 -30 -21 -12 32 10 29 77 87 87 76
3 -2 -8 -21 -24 -41z m404 -59 c28 -13 52 -28 52 -33 0 -4 -12 -13 -27 -19
-26 -10 -24 -11 14 -6 41 5 42 5 66 -43 43 -86 60 -179 54 -301 -3 -59 -11
-133 -17 -163 -6 -30 -15 -80 -20 -110 -11 -67 -28 -126 -46 -162 -19 -37 -88
-75 -149 -82 -98 -11 -234 22 -266 65 -36 50 -86 252 -99 399 l-8 85 3 -105
c2 -58 11 -138 21 -178 9 -40 14 -76 10 -79 -15 -15 -52 56 -63 122 -33 199
11 496 82 555 17 14 18 13 13 -15 -3 -17 -16 -57 -28 -90 -12 -33 -23 -82 -25
-110 -1 -27 -1 -36 2 -20 7 51 65 218 85 248 21 29 63 51 142 71 59 15 127 6
204 -29z m119 -8 c31 -21 42 -37 25 -37 -10 0 -92 60 -92 67 0 8 32 -6 67 -30z
m-637 -42 c-19 -50 -51 -106 -64 -111 -8 -3 -21 -23 -31 -45 -16 -34 -35 -52
-35 -32 0 20 36 116 50 131 8 9 26 32 38 50 29 39 56 45 42 7z m809 -34 c10
-14 22 -37 26 -51 13 -40 -17 -10 -50 52 -29 54 -14 53 24 -1z m-91 -140 c21
-46 26 -71 26 -141 0 -94 -11 -180 -23 -180 -13 0 -21 65 -21 165 -1 50 -7
120 -14 157 -15 79 -4 78 32 -1z m49 -13 c-3 -8 -6 -5 -6 6 -1 11 2 17 5 13 3
-3 4 -12 1 -19z m-833 -41 c-9 -26 -20 -47 -25 -47 -9 0 2 37 23 77 18 36 19
20 2 -30z m975 -42 c1 -17 -1 -17 -9 -5 -5 8 -9 26 -9 40 0 23 1 23 9 5 5 -11
9 -29 9 -40z m-1003 -62 c-4 -21 -9 -82 -12 -135 -4 -57 -11 -98 -17 -98 -11
0 -4 205 9 248 11 37 27 25 20 -15z m861 -155 c-3 -8 -6 -5 -6 6 -1 11 2 17 5
13 3 -3 4 -12 1 -19z m-807 -92 c0 -6 -3 -6 -9 0 -6 5 -13 29 -16 54 l-5 45
15 -45 c8 -25 15 -49 15 -54z m785 2 c-17 -23 -17 -23 -10 12 10 46 19 60 23
33 2 -13 -4 -33 -13 -45z m164 -25 c-12 -60 -51 -142 -84 -173 -36 -33 -41
-19 -12 32 14 24 40 78 57 120 36 86 52 94 39 21z m-890 -10 c13 -47 14 -63 2
-63 -5 0 -12 15 -16 33 -4 17 -9 40 -11 50 -3 9 -1 17 5 17 5 0 15 -17 20 -37z
m650 -47 c-9 -8 -10 -5 -5 14 3 14 6 32 7 40 1 8 4 2 6 -14 3 -16 -1 -34 -8
-40z m81 -28 c-19 -53 -63 -108 -76 -95 -8 7 14 75 27 83 5 3 22 24 36 47 33
53 40 36 13 -35z m-826 -32 c15 -38 24 -71 22 -73 -11 -11 -58 79 -63 119 -8
59 9 41 41 -46z m216 -56 c0 -12 -20 -13 -37 -2 -12 8 -33 55 -33 74 0 6 16
-5 35 -25 19 -20 35 -41 35 -47z m-143 22 c29 -39 65 -113 59 -119 -3 -3 -12
0 -21 7 -18 15 -75 113 -75 129 0 19 15 12 37 -17z m119 -117 c10 -19 30 -39
45 -46 15 -6 35 -19 45 -30 16 -18 16 -19 -13 -19 -16 0 -36 6 -45 13 -19 14
-68 92 -68 107 0 21 17 9 36 -25z m174 -119 c0 -9 -30 -14 -35 -6 -4 6 3 10
14 10 12 0 21 -2 21 -4z m90 -16 c0 -5 -7 -10 -16 -10 -8 0 -12 5 -9 10 3 6
10 10 16 10 5 0 9 -4 9 -10z m-32 -30 c33 0 51 -4 47 -10 -10 -17 -138 -12
-161 6 -18 14 -17 15 21 10 22 -3 64 -6 93 -6z"/>
<path d="M4074 2374 c-29 -14 -64 -75 -64 -111 0 -6 -9 -15 -20 -18 -20 -6
-70 -64 -70 -81 0 -5 11 5 25 21 l25 30 -6 -40 c-3 -22 -15 -49 -25 -60 -19
-19 -19 -19 -19 5 -1 22 -2 23 -11 7 -6 -9 -7 -26 -4 -37 7 -22 -18 -75 -39
-83 -26 -10 -45 -61 -66 -182 -21 -122 -28 -335 -11 -335 5 0 13 -9 16 -21 4
-11 9 -19 11 -16 3 2 0 15 -5 29 -5 14 -6 30 -2 37 6 10 10 9 14 -3 4 -9 18
-21 32 -26 14 -5 28 -18 31 -27 17 -54 31 -81 61 -120 33 -43 41 -59 24 -49
-5 3 -14 0 -20 -8 -16 -19 50 -75 139 -120 36 -18 77 -40 91 -49 14 -10 33
-15 41 -12 8 3 44 1 79 -6 35 -6 87 -10 115 -10 56 2 68 -7 77 -54 3 -16 9
-42 12 -57 5 -16 1 -39 -8 -58 -15 -30 -19 -79 -21 -281 -1 -65 -6 -94 -21
-122 -11 -20 -23 -37 -27 -37 -5 0 -8 -6 -8 -13 0 -8 -9 -22 -20 -32 -21 -19
-36 -17 -108 9 -26 10 -57 14 -75 11 -29 -6 -38 0 -92 55 -49 49 -57 62 -45
70 8 5 22 10 30 10 18 0 117 40 148 60 46 30 17 41 -37 14 -17 -9 -39 -13 -48
-10 -14 6 -12 11 10 34 15 16 27 33 27 40 0 6 11 28 25 48 20 30 23 40 13 52
-24 28 -242 -6 -344 -54 -28 -13 -67 -24 -87 -24 -55 0 -62 -36 -11 -59 45
-20 22 -36 -57 -39 -41 -2 -75 -4 -76 -6 -1 -1 13 -19 33 -41 30 -35 39 -39
75 -36 30 1 40 -2 37 -11 -3 -7 -14 -14 -26 -16 -12 -2 -22 -7 -22 -11 0 -21
170 -207 211 -230 25 -14 76 -45 115 -67 103 -62 167 -94 184 -94 8 1 26 7 40
14 23 13 22 14 -20 9 -42 -4 -54 1 -175 75 -71 44 -148 93 -169 108 -45 33
-122 121 -113 130 14 15 51 -12 83 -62 37 -58 58 -74 98 -74 15 0 50 -13 79
-29 28 -16 85 -39 125 -52 56 -18 85 -34 124 -71 53 -49 94 -62 116 -35 6 7
12 35 14 62 3 49 4 50 46 64 30 9 42 18 38 27 -3 8 10 30 28 49 39 40 49 87
35 180 -7 52 -5 74 10 122 l19 58 7 -33 c4 -18 13 -31 19 -30 17 5 64 108 82
180 13 51 15 93 11 223 -4 88 -9 174 -12 190 l-6 30 18 -25 c24 -33 115 -120
125 -120 5 0 11 7 14 15 5 12 15 14 41 9 30 -6 34 -4 31 12 -2 14 5 20 27 24
44 8 39 34 -7 38 -28 2 -37 8 -40 24 -2 12 -12 26 -23 32 -11 6 -39 26 -64 44
-61 45 -96 43 -117 -7 -9 -22 -13 -16 -31 60 -12 47 -29 103 -39 125 -14 33
-17 69 -16 249 2 242 -14 365 -55 428 -20 32 -27 36 -39 26 -11 -9 -18 -9 -26
-1 -7 7 -20 12 -31 12 -10 0 -15 5 -12 10 3 6 -2 10 -11 10 -10 0 -26 7 -36
17 -46 41 -136 84 -231 109 -103 28 -121 29 -163 8z m106 -13 c0 -11 -25 -21
-51 -21 -12 0 -17 -5 -14 -10 9 -15 -20 -56 -44 -63 -16 -4 -19 0 -17 22 2 15
12 30 24 36 12 5 22 18 22 27 0 14 8 18 40 18 22 0 40 -4 40 -9z m104 -53 c18
-10 16 -12 -13 -24 -40 -17 -75 -20 -118 -10 -40 9 -42 21 -5 40 29 16 99 13
136 -6z m100 -39 c5 -4 6 -15 2 -25 -6 -15 -10 -14 -36 11 -17 16 -30 32 -30
37 0 8 47 -9 64 -23z m-234 -44 c0 -16 -27 -32 -37 -21 -7 7 16 36 28 36 5 0
9 -7 9 -15z m140 0 c0 -8 -4 -15 -9 -15 -5 0 -14 7 -21 15 -10 13 -9 15 9 15
12 0 21 -6 21 -15z m138 -14 c3 -16 -1 -22 -10 -19 -7 3 -15 15 -16 27 -3 16
1 22 10 19 7 -3 15 -15 16 -27z m-398 5 c0 -3 -4 -8 -10 -11 -5 -3 -10 -1 -10
4 0 6 5 11 10 11 6 0 10 -2 10 -4z m30 -10 c0 -3 -4 -8 -10 -11 -5 -3 -10 -1
-10 4 0 6 5 11 10 11 6 0 10 -2 10 -4z m318 -15 c3 -8 -1 -12 -9 -9 -7 2 -15
10 -17 17 -3 8 1 12 9 9 7 -2 15 -10 17 -17z m187 -11 c3 -5 1 -10 -4 -10 -6
0 -11 5 -11 10 0 6 2 10 4 10 3 0 8 -4 11 -10z m-271 -28 c-1 -6 -2 -16 -2
-20 -1 -5 -18 -14 -37 -22 -44 -17 -45 -34 0 -47 32 -10 36 -9 55 15 l20 27
28 -32 c16 -18 33 -33 38 -33 15 0 47 -64 35 -68 -7 -2 -9 -17 -5 -38 8 -41
-5 -44 -41 -8 -14 14 -30 22 -37 18 -7 -4 -2 -12 14 -20 42 -22 87 -151 59
-168 -5 -4 -3 -26 5 -52 8 -29 10 -51 5 -58 -5 -6 -9 -60 -8 -121 0 -127 -14
-198 -40 -188 -12 5 -15 2 -10 -10 8 -22 -10 -33 -67 -41 -39 -5 -55 -2 -82
15 -35 21 -37 38 -6 40 9 1 -4 5 -29 9 -27 5 -74 26 -117 54 -67 43 -72 49
-89 103 -33 109 -20 421 17 398 5 -3 16 -27 25 -54 19 -58 69 -111 87 -93 9 9
7 12 -9 12 -28 0 -39 16 -63 86 -26 77 -26 136 -1 158 11 10 18 23 15 30 -5
12 31 66 44 66 15 0 32 -57 33 -109 1 -50 2 -52 9 -21 3 19 5 56 2 82 -4 41
-1 51 23 77 25 26 35 29 79 27 33 -1 51 -6 50 -14z m271 -59 l-8 -28 -10 32
c-5 18 -6 40 -2 50 7 17 8 16 17 -4 6 -12 7 -34 3 -50z m-130 -23 c3 -5 1 -10
-4 -10 -6 0 -11 5 -11 10 0 6 2 10 4 10 3 0 8 -4 11 -10z m-530 -141 c-10 -15
-25 -10 -19 6 4 8 10 12 15 9 5 -3 7 -10 4 -15z m570 -126 c4 -39 3 -63 -3
-63 -13 0 -22 36 -22 95 0 67 16 46 25 -32z m-615 -12 c0 -17 -4 -33 -10 -36
-6 -4 -10 8 -10 29 0 20 5 36 10 36 6 0 10 -13 10 -29z m60 -26 c0 -14 -4 -25
-10 -25 -11 0 -14 33 -3 43 11 11 13 8 13 -18z m-90 -76 c0 -17 -4 -28 -10
-24 -5 3 -10 17 -10 31 0 13 5 24 10 24 6 0 10 -14 10 -31z m78 -6 c-3 -42
-21 -51 -26 -15 -4 29 4 52 18 52 7 0 10 -15 8 -37z m553 -159 l-8 -79 -1 95
c-1 63 2 90 8 79 6 -10 6 -48 1 -95z m-600 19 c11 -31 4 -41 -19 -27 -23 14
-45 61 -38 80 5 12 9 11 26 -6 12 -12 25 -32 31 -47z m828 -45 c6 -18 22 -87
36 -153 30 -141 44 -385 27 -477 -12 -59 -49 -158 -61 -158 -4 0 -7 118 -7
263 1 241 -1 268 -22 341 -24 88 -27 123 -11 179 12 46 24 47 38 5z m-230
-135 c0 -32 2 -92 3 -133 3 -73 2 -75 -22 -78 -14 -1 -42 -5 -62 -8 -24 -4
-38 -2 -38 4 0 6 10 12 22 14 15 2 25 12 28 28 3 14 15 44 28 67 22 41 31 72
12 43 -5 -8 -12 -12 -15 -8 -5 5 35 127 42 128 1 0 2 -26 2 -57z m371 -63 c0
-5 -4 -10 -10 -10 -5 0 -10 5 -10 10 0 6 5 10 10 10 6 0 10 -4 10 -10z m-458
-39 c-7 -4 -12 -14 -10 -21 5 -21 -31 -24 -53 -4 -27 24 -24 31 19 41 38 10
68 -1 44 -16z m264 -87 c-2 -27 -4 -67 -5 -89 -2 -32 -4 -36 -11 -20 -11 25
-13 150 -3 196 l7 34 7 -36 c5 -20 7 -58 5 -85z m-651 86 c10 -11 16 -20 13
-20 -3 0 -13 9 -23 20 -10 11 -16 20 -13 20 3 0 13 -9 23 -20z m196 4 c17 -8
28 -18 25 -21 -7 -8 -66 17 -66 28 0 12 6 11 41 -7z m9 -74 c0 -5 -4 -10 -9
-10 -6 0 -13 5 -16 10 -3 6 1 10 9 10 9 0 16 -4 16 -10z m113 -10 c24 0 13
-15 -19 -24 -14 -4 -29 1 -45 15 l-24 20 34 -5 c18 -3 43 -6 54 -6z m324 -237
c-3 -10 -5 -2 -5 17 0 19 2 27 5 18 2 -10 2 -26 0 -35z m-403 -132 c3 -5 -7
-23 -23 -40 -29 -31 -30 -31 -134 -31 -109 0 -167 7 -167 20 0 8 92 35 170 49
62 12 148 13 154 2z m-84 -107 c0 -18 -22 -23 -133 -30 -85 -6 -108 -4 -135
10 -60 31 -39 37 118 34 104 -2 150 -7 150 -14z m359 -98 c-5 -6 -9 7 -8 35
l1 44 8 -35 c5 -20 5 -39 -1 -44z m109 -104 c3 -75 -18 -134 -52 -140 -18 -4
-18 -2 3 26 18 25 21 44 21 118 0 69 3 85 12 76 7 -7 14 -43 16 -80z m-509 7
c35 -38 61 -73 58 -76 -9 -9 -87 42 -139 91 -50 46 -51 56 -9 56 19 0 42 -18
90 -71z m421 -39 c0 -19 -7 -33 -19 -40 -45 -23 -53 -6 -19 40 28 38 38 38 38
0z m-214 -45 c44 -18 40 -41 -6 -38 -40 2 -80 22 -80 40 0 17 42 17 86 -2z
m202 -62 c5 -17 -26 -29 -40 -15 -6 6 -7 15 -3 22 9 14 37 9 43 -7z m-78 -23
c7 -14 7 -20 0 -20 -20 0 -100 24 -100 31 0 3 20 7 45 7 35 1 47 -3 55 -18z
m-50 -110 c0 -5 -4 -10 -9 -10 -6 0 -13 5 -16 10 -3 6 1 10 9 10 9 0 16 -4 16
-10z m78 -27 c-4 -45 -24 -53 -59 -23 l-24 20 24 20 c13 11 32 20 43 20 16 0
19 -6 16 -37z"/>
<path d="M7910 2231 c-19 -10 -66 -21 -105 -25 -38 -3 -103 -16 -144 -29 -61
-18 -78 -28 -91 -52 -11 -21 -42 -44 -98 -73 -66 -34 -83 -48 -87 -70 -3 -15
-13 -40 -22 -57 -51 -94 -53 -102 -46 -166 4 -42 3 -60 -4 -56 -6 4 -13 0 -17
-8 -3 -10 1 -15 14 -15 13 0 20 -10 25 -32 3 -18 11 -56 17 -84 8 -38 8 -61
-1 -84 -35 -102 16 -239 99 -265 12 -4 33 -32 50 -66 20 -38 45 -70 72 -89 49
-36 153 -70 212 -70 23 0 55 -9 74 -20 53 -33 92 -19 56 21 -20 22 -20 22 30
43 23 10 67 16 112 16 83 0 82 -1 103 85 8 32 21 47 59 73 61 41 92 82 92 121
0 17 9 45 20 63 24 39 25 61 5 82 -21 21 -57 7 -124 -49 -42 -33 -66 -45 -103
-50 -45 -6 -52 -5 -77 19 -54 51 -114 53 -285 10 -32 -9 -63 -11 -67 -7 -5 5
-15 38 -22 73 -10 53 -17 66 -34 68 -15 2 -23 -5 -32 -28 -15 -44 -37 -34 -33
16 11 152 14 163 38 143 12 -9 14 -5 14 26 0 20 13 67 29 103 16 37 32 84 36
105 7 35 9 37 44 37 20 0 72 7 117 16 73 15 86 15 142 0 34 -8 68 -13 76 -10
8 3 37 -5 63 -19 26 -14 62 -30 80 -37 17 -6 39 -20 49 -31 23 -26 41 -24 82
7 32 25 34 30 28 68 -13 90 -25 115 -79 156 -29 22 -63 49 -77 60 -14 11 -58
29 -99 40 -41 12 -85 30 -99 40 -30 24 -47 24 -92 1z m245 -161 c3 -5 -1 -10
-9 -10 -9 0 -16 5 -16 10 0 6 4 10 9 10 6 0 13 -4 16 -10z m45 -30 c0 -5 -7
-10 -16 -10 -8 0 -12 5 -9 10 3 6 10 10 16 10 5 0 9 -4 9 -10z m-315 -12 c14
-6 25 -15 25 -20 0 -13 -42 -8 -85 12 l-40 19 37 0 c20 1 49 -4 63 -11z m-82
-15 c26 -9 47 -20 47 -24 0 -9 -32 -17 -103 -25 -64 -8 -73 3 -35 43 26 28 30
28 91 6z m431 -9 c4 -9 4 -19 2 -21 -8 -8 -26 8 -26 23 0 19 16 18 24 -2z
m-159 -14 c3 -5 2 -10 -4 -10 -5 0 -13 5 -16 10 -3 6 -2 10 4 10 5 0 13 -4 16
-10z m-585 -29 c0 -13 -50 -71 -61 -71 -19 0 -8 40 17 59 29 23 44 27 44 12z
m688 -29 c3 -9 -2 -13 -14 -10 -9 1 -19 9 -22 16 -3 9 2 13 14 10 9 -1 19 -9
22 -16z m-782 -77 c8 -19 -19 -98 -34 -103 -15 -5 -16 71 -2 99 13 23 28 25
36 4z m74 -25 c0 -5 -5 -10 -11 -10 -5 0 -7 5 -4 10 3 6 8 10 11 10 2 0 4 -4
4 -10z m110 -107 c0 -14 -19 -38 -25 -32 -8 8 5 39 16 39 5 0 9 -3 9 -7z m50
-249 c0 -14 -6 -24 -14 -24 -19 0 -26 21 -14 43 12 23 28 12 28 -19z m690 -29
c0 -16 -35 -70 -58 -91 -33 -28 -58 -30 -71 -5 -11 19 12 46 69 84 23 16 60
23 60 12z m-908 -97 c15 -46 25 -84 22 -87 -9 -10 -42 32 -52 68 -14 44 -16
101 -4 101 4 0 19 -37 34 -82z m569 57 c29 -15 31 -35 4 -35 -7 0 -18 -14 -24
-31 -10 -30 -11 -30 -68 -24 -33 4 -80 2 -107 -5 -44 -10 -53 -9 -75 8 -14 10
-27 24 -29 30 -5 16 46 37 133 55 92 20 130 20 166 2z m-411 -71 c0 -16 -16
-19 -25 -4 -8 13 4 32 16 25 5 -4 9 -13 9 -21z m597 -20 c-9 -9 -28 6 -21 18
4 6 10 6 17 -1 6 -6 8 -13 4 -17z m-274 -31 c-7 -2 -19 -2 -25 0 -7 3 -2 5 12
5 14 0 19 -2 13 -5z m362 -3 c-3 -5 -10 -10 -16 -10 -5 0 -9 5 -9 10 0 6 7 10
16 10 8 0 12 -4 9 -10z m-575 -65 c10 -12 9 -15 -8 -15 -11 0 -25 7 -32 15
-10 12 -9 15 8 15 11 0 25 -7 32 -15z m308 -77 c-5 -15 -58 -24 -58 -10 0 15
12 22 38 22 14 0 22 -5 20 -12z m-384 -29 c15 -12 51 -34 79 -50 42 -23 47
-29 27 -29 -48 0 -160 64 -160 92 0 15 27 8 54 -13z m516 17 c0 -22 -17 -36
-41 -36 -35 0 -37 11 -6 26 23 12 47 17 47 10z m-213 -32 c-3 -3 -12 -4 -19
-1 -8 3 -5 6 6 6 11 1 17 -2 13 -5z"/>
<path d="M6685 2218 c-21 -13 -73 -20 -259 -37 -154 -14 -318 -56 -370 -96
-23 -17 -47 -44 -55 -60 -12 -26 -12 -35 2 -75 l16 -45 -30 -35 c-80 -93 -134
-271 -105 -347 44 -119 56 -156 72 -228 9 -44 24 -98 32 -120 17 -46 74 -120
104 -136 29 -16 182 -39 256 -39 35 0 72 -5 83 -10 11 -6 25 -8 32 -3 15 9 63
5 96 -10 26 -11 25 -11 -14 -17 l-40 -7 41 -2 c25 0 65 -13 97 -30 82 -43 237
-64 237 -32 0 5 -28 11 -62 14 -87 9 -133 24 -164 52 -15 14 -31 25 -35 25
-16 0 -9 18 9 23 10 3 5 5 -13 7 -16 1 -39 6 -50 11 -13 6 28 8 117 5 109 -3
139 -1 149 10 6 8 21 11 34 8 18 -4 26 2 43 29 11 19 23 48 26 64 4 16 27 54
52 84 70 84 70 134 0 105 -30 -12 -32 -11 -78 36 -25 26 -51 48 -57 48 -18 0
-31 -46 -31 -110 l0 -59 -42 -11 c-24 -6 -58 -17 -76 -25 -44 -20 -136 -19
-196 2 -76 28 -172 123 -224 223 -24 45 -41 88 -38 95 3 10 25 12 92 7 74 -4
97 -10 138 -35 31 -17 52 -25 54 -18 2 6 30 11 68 11 58 0 64 -2 64 -21 0 -12
5 -19 13 -17 7 3 12 25 13 56 1 56 4 54 -86 65 l-25 2 24 14 c21 12 29 11 55
-1 57 -28 141 -58 162 -58 11 0 35 -11 54 -25 38 -28 40 -29 40 -15 0 6 -6 10
-13 10 -7 0 -28 16 -47 35 -19 19 -43 35 -54 35 -12 1 -37 10 -56 21 l-35 20
44 -6 c24 -3 49 -9 55 -13 6 -3 18 -5 26 -4 9 1 27 -9 40 -23 25 -27 50 -33
50 -12 0 14 16 32 68 73 17 14 32 33 32 42 0 10 7 30 15 46 36 68 30 176 -11
225 -17 20 -24 41 -24 69 0 55 -31 92 -76 92 -19 0 -42 4 -52 10 -9 5 -34 16
-54 24 -36 14 -37 16 -27 46 6 17 9 34 6 37 -13 12 -93 13 -112 1z m82 -24
c-3 -3 -12 -4 -19 -1 -8 3 -5 6 6 6 11 1 17 -2 13 -5z m-490 -79 c-27 -14 -57
-25 -68 -25 -11 0 -35 -15 -53 -34 -19 -18 -51 -38 -71 -42 -41 -10 -51 -27
-17 -32 27 -4 28 -14 1 -38 -20 -18 -21 -18 -35 1 -8 11 -14 36 -12 55 4 48
62 87 175 116 117 29 139 29 80 -1z m433 5 c0 -5 -2 -10 -4 -10 -3 0 -8 5 -11
10 -3 6 -1 10 4 10 6 0 11 -4 11 -10z m50 0 c0 -5 -5 -10 -11 -10 -5 0 -7 5
-4 10 3 6 8 10 11 10 2 0 4 -4 4 -10z m206 -75 c8 -13 14 -32 12 -42 -2 -13
-9 -9 -26 20 -25 43 -26 47 -12 47 5 0 17 -11 26 -25z m-716 5 c0 -5 -13 -10
-30 -10 -16 0 -30 5 -30 10 0 6 14 10 30 10 17 0 30 -4 30 -10z m120 0 c-20
-13 -47 -13 -55 0 -4 6 9 10 32 10 28 0 34 -3 23 -10z m540 -11 c0 -5 -7 -9
-15 -9 -15 0 -20 12 -9 23 8 8 24 -1 24 -14z m-196 -85 c9 -3 16 -18 16 -32 0
-14 10 -51 21 -84 12 -32 20 -61 17 -63 -3 -3 -49 -1 -102 5 -54 5 -101 8
-106 5 -4 -3 -43 -7 -86 -10 -68 -5 -85 -3 -126 16 -27 12 -48 25 -48 28 0 12
187 102 225 108 22 3 54 12 70 19 32 14 93 18 119 8z m-304 -14 c0 -5 -9 -10
-21 -10 -11 0 -17 5 -14 10 3 6 13 10 21 10 8 0 14 -4 14 -10z m-113 -6 c-3
-3 -12 -4 -19 -1 -8 3 -5 6 6 6 11 1 17 -2 13 -5z m515 -15 c18 1 31 -6 38
-20 14 -25 15 -24 -35 -38 -34 -9 -42 -8 -52 6 -7 9 -13 28 -13 41 0 19 4 23
18 17 9 -4 29 -7 44 -6z m130 -14 c-8 -46 -52 -55 -52 -11 0 29 9 38 35 34 14
-2 19 -9 17 -23z m-572 -3 c0 -12 -78 -47 -86 -39 -3 3 -3 11 1 17 14 22 85
40 85 22z m-130 -10 c0 -13 -12 -22 -22 -16 -10 6 -1 24 13 24 5 0 9 -4 9 -8z
m798 -92 c-2 -19 -7 -35 -13 -35 -13 0 -19 59 -10 94 l7 26 10 -25 c5 -13 8
-40 6 -60z m-81 13 c-7 -41 -20 -59 -36 -49 -15 10 -14 73 2 79 32 14 40 7 34
-30z m-96 17 c24 -13 27 -55 3 -46 -9 3 -27 6 -40 6 -17 0 -24 6 -24 18 0 33
24 41 61 22z m-889 -96 c-19 -54 -33 -80 -45 -82 -15 -3 -17 1 -11 25 13 52
69 151 80 140 2 -2 -9 -39 -24 -83z m118 68 c0 -5 -7 -17 -16 -28 -8 -10 -14
-14 -11 -9 2 6 7 18 10 28 7 17 17 23 17 9z m178 -24 c-2 -19 -9 -23 -37 -23
-41 0 -51 17 -19 33 39 19 60 15 56 -10z m174 -99 c47 -10 108 -39 83 -39 -21
0 21 -20 43 -20 33 0 27 -17 -10 -29 -67 -21 -132 -24 -173 -7 -31 13 -36 19
-25 26 8 5 35 10 60 10 25 0 52 5 60 11 11 7 5 9 -25 5 -22 -3 -61 -8 -87 -12
-41 -5 -48 -3 -58 16 -26 49 19 63 132 39z m496 -36 c-16 -15 -18 -15 -24 0
-3 9 -3 25 0 34 6 15 8 15 24 0 15 -16 15 -18 0 -34z m48 10 c-10 -10 -19 5
-10 18 6 11 8 11 12 0 2 -7 1 -15 -2 -18z m-719 -9 c-7 -7 -37 7 -37 17 0 6 9
5 21 -1 11 -7 19 -14 16 -16z m-82 6 c3 -5 1 -10 -4 -10 -6 0 -11 5 -11 10 0
6 2 10 4 10 3 0 8 -4 11 -10z m-195 -14 c0 -3 -4 -8 -10 -11 -5 -3 -10 -1 -10
4 0 6 5 11 10 11 6 0 10 -2 10 -4z m147 -18 c-3 -8 -6 -5 -6 6 -1 11 2 17 5
13 3 -3 4 -12 1 -19z m88 2 c0 -7 -6 -15 -12 -17 -8 -3 -13 4 -13 17 0 13 5
20 13 18 6 -3 12 -11 12 -18z m-265 -25 c0 -17 7 -28 23 -34 21 -8 25 -20 36
-106 13 -100 9 -131 -10 -77 -6 18 -17 32 -24 32 -29 0 -72 134 -59 184 8 34
34 34 34 1z m403 -24 c13 -13 -28 -24 -74 -19 -37 3 -54 33 -22 40 24 5 83 -8
96 -21z m-133 5 c0 -3 -4 -8 -10 -11 -5 -3 -10 -1 -10 4 0 6 5 11 10 11 6 0
10 -2 10 -4z m-160 -72 c0 -7 8 -32 19 -56 21 -49 38 -208 22 -208 -23 0 -72
202 -71 294 1 21 1 21 15 2 8 -11 15 -25 15 -32z m97 16 c14 -28 17 -86 5 -94
-11 -7 -64 102 -56 115 10 17 38 5 51 -21z m488 20 c14 -6 0 -9 -45 -9 -45 0
-59 3 -45 9 11 5 31 9 45 9 14 0 34 -4 45 -9z m-395 -177 c0 -14 -6 -23 -15
-23 -11 0 -15 11 -15 43 1 39 2 41 15 23 8 -11 15 -30 15 -43z m608 -15 c-4
-27 -28 -36 -28 -10 0 20 8 32 22 32 5 0 8 -10 6 -22z m-842 -60 c15 -29 42
-73 60 -97 23 -30 34 -55 34 -77 0 -42 -17 -44 -52 -6 -35 37 -54 77 -68 147
-7 33 -15 65 -17 72 -3 7 0 13 6 13 6 0 23 -24 37 -52z m398 -70 c52 -27 34
-34 -37 -13 -79 23 -90 34 -93 91 l-2 48 45 -53 c25 -28 64 -61 87 -73z m-254
56 c0 -12 13 -33 28 -46 40 -33 47 -48 24 -48 -11 0 -34 13 -51 29 -27 25 -31
36 -31 78 1 44 2 47 15 29 8 -11 15 -30 15 -42z m750 31 c0 -8 -2 -15 -4 -15
-2 0 -6 7 -10 15 -3 8 -1 15 4 15 6 0 10 -7 10 -15z m70 -29 c0 -18 -16 -29
-30 -21 -13 8 -1 35 16 35 8 0 14 -6 14 -14z m-200 -76 c0 -5 -12 -10 -27 -9
-25 0 -26 1 -8 9 27 12 35 12 35 0z m-579 -44 c24 -13 55 -27 67 -31 22 -6 62
-39 62 -50 0 -12 -29 -3 -53 15 -14 11 -36 20 -49 20 -23 1 -50 19 -77 53 -19
24 -1 21 50 -7z m180 -16 l24 -19 -26 -1 c-15 0 -37 9 -50 20 l-24 19 26 1
c15 0 37 -9 50 -20z m-207 -16 c33 -13 11 -44 -30 -44 -14 0 -20 31 -7 43 8 9
17 9 37 1z m341 -1 c37 -6 38 -7 14 -14 -31 -8 -79 -1 -79 12 0 11 12 11 65 2z
m-100 -54 c5 -5 -2 -9 -17 -9 -36 0 -58 10 -58 26 0 10 7 11 33 2 17 -6 36
-15 42 -19z m-164 1 c26 -15 24 -30 -5 -30 -49 0 -76 23 -38 33 9 3 18 5 20 6
2 0 12 -4 23 -9z"/>
<path d="M5976 1487 c3 -10 9 -15 12 -12 3 3 0 11 -7 18 -10 9 -11 8 -5 -6z"/>
<path d="M9515 1843 c-4 -43 -13 -103 -21 -133 -8 -30 -14 -94 -14 -142 0 -72
3 -88 15 -88 9 0 15 9 15 23 0 13 7 32 15 43 8 10 15 30 15 42 0 47 25 15 42
-54 19 -80 22 -60 7 41 -6 39 -15 117 -19 175 -11 132 -19 170 -35 170 -9 0
-15 -24 -20 -77z"/>
<path d="M411 1624 c0 -11 3 -14 6 -6 3 7 2 16 -1 19 -3 4 -6 -2 -5 -13z"/>
<path d="M3900 1315 c13 -14 26 -25 28 -25 3 0 -5 11 -18 25 -13 14 -26 25
-28 25 -3 0 5 -11 18 -25z"/>
<path d="M6770 1000 c-9 -6 -10 -10 -3 -10 6 0 15 5 18 10 8 12 4 12 -15 0z"/>
<path d="M4472 930 c0 -14 2 -19 5 -12 2 6 2 18 0 25 -3 6 -5 1 -5 -13z"/>
<path d="M1879 858 c4 -28 6 -29 9 -9 2 13 0 27 -5 32 -6 6 -7 -3 -4 -23z"/>
<path d="M1891 794 c0 -11 3 -14 6 -6 3 7 2 16 -1 19 -3 4 -6 -2 -5 -13z"/>
<path d="M1900 746 c0 -8 4 -17 9 -20 5 -4 7 3 4 14 -6 23 -13 26 -13 6z"/>
<path d="M10599 698 c-6 -13 -13 -25 -15 -27 -1 -2 -17 7 -33 19 -36 25 -66
20 -75 -14 -4 -16 -18 -26 -46 -35 -28 -8 -40 -17 -40 -30 0 -22 19 -31 66
-31 33 0 45 -12 24 -25 -26 -16 3 -93 39 -102 24 -6 39 5 66 52 10 17 13 17
50 -2 22 -11 64 -26 93 -33 92 -21 105 7 23 51 -63 33 -75 46 -60 61 8 8 29
20 47 27 17 7 32 19 32 26 0 7 7 16 16 19 24 9 14 60 -12 64 -11 2 -27 -4 -34
-13 -16 -19 -74 -20 -90 0 -18 21 -37 19 -51 -7z m181 -2 c0 -11 -19 -15 -25
-6 -3 5 1 10 9 10 9 0 16 -2 16 -4z m-95 -35 c-11 -10 -30 -14 -55 -12 -13 1
-13 2 0 11 19 13 67 13 55 1z m-187 -48 c2 -9 -9 -13 -37 -13 -40 0 -62 14
-39 24 22 9 71 2 76 -11z m72 -101 c0 -23 -19 -42 -41 -42 -28 0 -31 17 -7 39
27 26 48 27 48 3z m180 -18 c0 -2 -9 -4 -21 -4 -11 0 -18 4 -14 10 5 8 35 3
35 -6z"/>
</g>
</svg>
